<?xml version="1.0" encoding="iso-8859-1"?>
<!-- Generator: Adobe Illustrator 16.0.0, SVG Export Plug-In . SVG Version: 6.00 Build 0)  -->
<!DOCTYPE svg PUBLIC "-//W3C//DTD SVG 1.1//EN" "http://www.w3.org/Graphics/SVG/1.1/DTD/svg11.dtd">
<svg version="1.1" id="Capa_1" xmlns="http://www.w3.org/2000/svg" xmlns:xlink="http://www.w3.org/1999/xlink" x="0px" y="0px"
	 width="152.788px" height="152.789px" viewBox="0 0 152.788 152.789" style="enable-background:new 0 0 152.788 152.789;"
	 xml:space="preserve">
<g>
	<g>
		<path d="M127.287,75.895v-6.32c0-7.209-5.699-13.083-12.708-13.083c-2.43,0-4.677,0.734-6.619,1.952V32.312
			c0-7.209-5.62-13.07-12.55-13.07c-2.308,0-4.457,0.691-6.32,1.839v-7.986C89.09,5.873,83.391,0,76.382,0
			c-6.497,0-11.81,5.063-12.553,11.56c-1.915-1.184-4.141-1.927-6.534-1.927c-7.009,0-12.708,5.867-12.708,13.095v7.45
			c-1.894-1.16-4.077-1.863-6.433-1.863c-7.003,0-12.702,5.867-12.702,13.082V65.97v33.88v7.745
			c0,26.609,20.944,45.193,50.942,45.193c29.995,0,50.941-18.584,50.941-45.193v-31.42L127.287,75.895z M76.4,146.554
			c-26.327,0-44.707-16.027-44.707-38.959V99.85V65.97V41.397c0-3.766,2.898-6.847,6.467-6.847c3.504,0,6.333,2.974,6.433,6.646
			v31.201l0.037,0.183v7.371c0,1.705,1.397,3.117,3.118,3.117c1.723,0,3.118-1.412,3.118-3.117V41.382l-0.037-0.378V22.704
			c0-3.767,2.908-6.859,6.473-6.859c3.416,0,6.159,2.85,6.384,6.402v51.429l0.088,0.417v5.018c0,1.705,1.397,3.117,3.118,3.117
			s3.118-1.412,3.118-3.117V22.698l-0.088-0.886v-8.756c0-3.766,2.898-6.856,6.466-6.856c3.565,0,6.473,3.078,6.473,6.856v19.218
			v35.024v12.337c0,1.729,1.395,3.117,3.118,3.117c1.717,0,3.117-1.389,3.117-3.117V67.297V32.312c0-3.766,2.838-6.835,6.321-6.835
			c3.495,0,6.32,3.069,6.32,6.835v58.465c0,1.718,1.4,3.118,3.117,3.118c1.718,0,3.118-1.4,3.118-3.118v-2.204l0.134-0.694V69.587
			c0-3.775,2.898-6.853,6.467-6.853c3.556,0,6.473,3.065,6.473,6.853v17.366l0.055,0.293v20.362
			C121.106,130.527,102.735,146.554,76.4,146.554z"/>
	</g>
</g>
<g>
</g>
<g>
</g>
<g>
</g>
<g>
</g>
<g>
</g>
<g>
</g>
<g>
</g>
<g>
</g>
<g>
</g>
<g>
</g>
<g>
</g>
<g>
</g>
<g>
</g>
<g>
</g>
<g>
</g>
</svg>
