<svg xmlns="http://www.w3.org/2000/svg" xmlns:xlink="http://www.w3.org/1999/xlink"  viewBox="0 0 2800 400" y="0px" x="0px" style="enable-background:new 0 0 2800 400;" xml:space="preserve">
        <g>
            <g>
                <g>
                <line x1="-157" y1="-3.05176e-05" x2="157" y2="-3.05176e-05" stroke-width="8" stroke="#000000" transform="matrix(1, 0, 0, 1, 201, 348)" ></line>
				<line x1="-0.00619507" y1="151.494" x2="-0.00619507" y2="-151.506" stroke-width="8" stroke="#000000" transform="matrix(1, 0, 0, 1, 300.376, 196.506)" ></line>
				<line x1="106.30854034423828" y1="-0.006176158785820007" x2="-64.6914" y2="-0.00617599" stroke-width="8" stroke="#000000" transform="matrix(1, 0, 0, 1, 235.691, 45.0062)" ></line>
				<line x1="-27.4074" y1="-27.4074" x2="27.4074" y2="27.4074" stroke-width="8" stroke="#000000" transform="matrix(1, 0, 0, 1, 272.963, 72.4074)" ></line>
				<line x1="-28.5185" y1="28.5185" x2="28.5185" y2="-28.5185" stroke-width="8" stroke="#000000" transform="matrix(1, 0, 0, 1, 271.852, 319.481)" ></line>
				<line x1="-0.0123291" y1="-21.5062" x2="-0.0123291" y2="21.4938" stroke-width="4" stroke="#000000" transform="matrix(1, 0, 0, 1, 171.012, 66.5062)" ></line>
				<line x1="-157" y1="-3.05176e-05" x2="157" y2="-3.05176e-05" stroke-width="8" stroke="#000000" transform="matrix(1, 0, 0, 1, 601.012, 351.506)" ></line>
				<line x1="-0.00619507" y1="151.494" x2="-0.00619507" y2="-151.506" stroke-width="8" stroke="#000000" transform="matrix(1, 0, 0, 1, 700.389, 200.012)" ></line>
				<line x1="106.30854034423828" y1="-0.006176158785820007" x2="-64.6914" y2="-0.00617599" stroke-width="8" stroke="#000000" transform="matrix(1, 0, 0, 1, 635.703, 48.5124)" ></line>
				<line x1="-27.4074" y1="-27.4074" x2="27.4074" y2="27.4074" stroke-width="8" stroke="#000000" transform="matrix(1, 0, 0, 1, 672.975, 75.9136)" ></line><line x1="-28.5185" y1="28.5185" x2="28.5185" y2="-28.5185" stroke-width="8" stroke="#000000" transform="matrix(1, 0, 0, 1, 671.864, 322.987)" ></line><line x1="-0.0123291" y1="-21.5062" x2="-0.0123291" y2="21.4938" stroke-width="4" stroke="#000000" transform="matrix(1, 0, 0, 1, 571.024, 70.0124)" ></line><line x1="-157" y1="-3.05176e-05" x2="157" y2="-3.05176e-05" stroke-width="8" stroke="#000000" transform="matrix(1, 0, 0, 1, 1001.02, 351.511)" ></line><line x1="-0.00619507" y1="151.494" x2="-0.00619507" y2="-151.506" stroke-width="8" stroke="#000000" transform="matrix(1, 0, 0, 1, 1100.4, 200.017)" ></line><line x1="106.30854034423828" y1="-0.006176158785820007" x2="-64.6914" y2="-0.00617599" stroke-width="8" stroke="#000000" transform="matrix(1, 0, 0, 1, 1035.71, 48.5177)" ></line><line x1="-27.4074" y1="-27.4074" x2="27.4074" y2="27.4074" stroke-width="8" stroke="#000000" transform="matrix(1, 0, 0, 1, 1072.98, 75.9189)" ></line><line x1="-28.5185" y1="28.5185" x2="28.5185" y2="-28.5185" stroke-width="8" stroke="#000000" transform="matrix(1, 0, 0, 1, 1071.87, 322.992)" ></line><line x1="-0.0123291" y1="-21.5062" x2="-0.0123291" y2="21.4938" stroke-width="4" stroke="#000000" transform="matrix(1, 0, 0, 1, 971.032, 70.0176)" ></line><line x1="-157" y1="-3.05176e-05" x2="157" y2="-3.05176e-05" stroke-width="8" stroke="#000000" transform="matrix(1, 0, 0, 1, 1401.02, 351.511)" ></line><line x1="-0.00619507" y1="151.494" x2="-0.00619507" y2="-151.506" stroke-width="8" stroke="#000000" transform="matrix(1, 0, 0, 1, 1500.4, 200.017)" ></line><line x1="106.30854034423828" y1="-0.006176158785820007" x2="-64.6914" y2="-0.00617599" stroke-width="8" stroke="#000000" transform="matrix(1, 0, 0, 1, 1435.71, 48.5177)" ></line><line x1="-27.4074" y1="-27.4074" x2="27.4074" y2="27.4074" stroke-width="8" stroke="#000000" transform="matrix(1, 0, 0, 1, 1472.98, 75.9189)" ></line><line x1="-28.5185" y1="28.5185" x2="28.5185" y2="-28.5185" stroke-width="8" stroke="#000000" transform="matrix(1, 0, 0, 1, 1471.87, 322.992)" ></line><line x1="-0.0123291" y1="-21.5062" x2="-0.0123291" y2="21.4938" stroke-width="4" stroke="#000000" transform="matrix(1, 0, 0, 1, 1371.03, 70.0176)" ></line><line x1="-157" y1="-3.05176e-05" x2="157" y2="-3.05176e-05" stroke-width="8" stroke="#000000" transform="matrix(1, 0, 0, 1, 1801.02, 351.511)" ></line><line x1="-0.00619507" y1="151.494" x2="-0.00619507" y2="-151.506" stroke-width="8" stroke="#000000" transform="matrix(1, 0, 0, 1, 1900.4, 200.017)" ></line><line x1="106.30854034423828" y1="-0.006176158785820007" x2="-64.6914" y2="-0.00617599" stroke-width="8" stroke="#000000" transform="matrix(1, 0, 0, 1, 1835.71, 48.5177)" ></line><line x1="-27.4074" y1="-27.4074" x2="27.4074" y2="27.4074" stroke-width="8" stroke="#000000" transform="matrix(1, 0, 0, 1, 1872.98, 75.9189)" ></line><line x1="-28.5185" y1="28.5185" x2="28.5185" y2="-28.5185" stroke-width="8" stroke="#000000" transform="matrix(1, 0, 0, 1, 1871.87, 322.992)" ></line><line x1="-0.0123291" y1="-21.5062" x2="-0.0123291" y2="21.4938" stroke-width="4" stroke="#000000" transform="matrix(1, 0, 0, 1, 1771.03, 70.0176)" ></line><line x1="-157" y1="-3.05176e-05" x2="157" y2="-3.05176e-05" stroke-width="8" stroke="#000000" transform="matrix(1, 0, 0, 1, 2201.02, 351.511)" ></line><line x1="-0.00619507" y1="151.494" x2="-0.00619507" y2="-151.506" stroke-width="8" stroke="#000000" transform="matrix(1, 0, 0, 1, 2300.4, 200.017)" ></line><line x1="106.30854034423828" y1="-0.006176158785820007" x2="-64.6914" y2="-0.00617599" stroke-width="8" stroke="#000000" transform="matrix(1, 0, 0, 1, 2235.71, 48.5177)" ></line><line x1="-27.4074" y1="-27.4074" x2="27.4074" y2="27.4074" stroke-width="8" stroke="#000000" transform="matrix(1, 0, 0, 1, 2272.98, 75.9189)" ></line><line x1="-28.5185" y1="28.5185" x2="28.5185" y2="-28.5185" stroke-width="8" stroke="#000000" transform="matrix(1, 0, 0, 1, 2271.87, 322.992)" ></line><line x1="-0.0123291" y1="-21.5062" x2="-0.0123291" y2="21.4938" stroke-width="4" stroke="#000000" transform="matrix(1, 0, 0, 1, 2171.03, 70.0176)" ></line><line x1="-157" y1="-3.05176e-05" x2="157" y2="-3.05176e-05" stroke-width="8" stroke="#000000" transform="matrix(1, 0, 0, 1, 2601.02, 351.511)" ></line><line x1="-0.00619507" y1="151.494" x2="-0.00619507" y2="-151.506" stroke-width="8" stroke="#000000" transform="matrix(1, 0, 0, 1, 2700.4, 200.017)" ></line><line x1="106.30854034423828" y1="-0.006176158785820007" x2="-64.6914" y2="-0.00617599" stroke-width="8" stroke="#000000" transform="matrix(1, 0, 0, 1, 2635.71, 48.5177)" ></line><line x1="-27.4074" y1="-27.4074" x2="27.4074" y2="27.4074" stroke-width="8" stroke="#000000" transform="matrix(1, 0, 0, 1, 2672.98, 75.9189)" ></line><line x1="-28.5185" y1="28.5185" x2="28.5185" y2="-28.5185" stroke-width="8" stroke="#000000" transform="matrix(1, 0, 0, 1, 2671.87, 322.992)" ></line><line x1="-0.0123291" y1="-21.5062" x2="-0.0123291" y2="21.4938" stroke-width="4" stroke="#000000" transform="matrix(1, 0, 0, 1, 2571.03, 70.0176)" ></line><ellipse cx="0" cy="0" rx="18.764004047288964" ry="18.499998723122438" stroke-width="4" stroke="#000000" fill="#FFFFFF" transform="matrix(1, 0, 0, 1, 570.236, 106.5)" ></ellipse><ellipse cx="0" cy="0" rx="18.764004047288964" ry="18.499998723122438" stroke-width="4" stroke="#000000" fill="#FFFFFF" transform="matrix(1, 0, 0, 1, 972.226, 110.006)" ></ellipse><line x1="0.000976562" y1="-48.2458" x2="0.000976562" y2="48.2479" stroke-width="4" stroke="#000000" transform="matrix(1, 0, 0, 1, 972.225, 176.752)" ></line><ellipse cx="0" cy="0" rx="18.764004047288964" ry="18.499998723122438" stroke-width="4" stroke="#000000" fill="#FFFFFF" transform="matrix(1, 0, 0, 1, 1372.22, 109.511)" ></ellipse><line x1="0.000976562" y1="-48.2458" x2="0.000976562" y2="48.2479" stroke-width="4" stroke="#000000" transform="matrix(1, 0, 0, 1, 1372.22, 176.257)" ></line><line x1="22.1193" y1="-22.3172" x2="-22.1095" y2="22.3159" stroke-width="4" stroke="#000000" transform="matrix(1, 0, 0, 1, 1350.1, 173.684)" ></line><ellipse cx="0" cy="0" rx="18.764004047288964" ry="18.499998723122438" stroke-width="4" stroke="#000000" fill="#FFFFFF" transform="matrix(1, 0, 0, 1, 1770.8, 109.501)" ></ellipse><line x1="0.000976562" y1="-48.2458" x2="0.000976562" y2="48.2479" stroke-width="4" stroke="#000000" transform="matrix(1, 0, 0, 1, 1770.79, 176.246)" ></line><line x1="22.1193" y1="-22.3172" x2="-22.1095" y2="22.3159" stroke-width="4" stroke="#000000" transform="matrix(1, 0, 0, 1, 1748.68, 173.673)" ></line><line x1="-21.8812" y1="-21.8151" x2="21.8911" y2="21.8292" stroke-width="4" stroke="#000000" transform="matrix(1, 0, 0, 1, 1792.68, 173.171)" ></line><ellipse cx="0" cy="0" rx="18.764004047288964" ry="18.499998723122438" stroke-width="4" stroke="#000000" fill="#FFFFFF" transform="matrix(1, 0, 0, 1, 2171.8, 112.013)" ></ellipse><line x1="0.000976562" y1="-48.2458" x2="0.000976562" y2="48.2479" stroke-width="4" stroke="#000000" transform="matrix(1, 0, 0, 1, 2171.8, 178.758)" ></line><line x1="22.1193" y1="-22.3172" x2="-22.1095" y2="22.3159" stroke-width="4" stroke="#000000" transform="matrix(1, 0, 0, 1, 2149.68, 176.185)" ></line><line x1="-21.8812" y1="-21.8151" x2="21.8911" y2="21.8292" stroke-width="4" stroke="#000000" transform="matrix(1, 0, 0, 1, 2193.68, 175.683)" ></line><line x1="23.1235" y1="-23.0067" x2="-23.1259" y2="22.9871" stroke-width="4" stroke="#000000" transform="matrix(1, 0, 0, 1, 2148.67, 250.013)" ></line><ellipse cx="0" cy="0" rx="18.764004047288964" ry="18.499998723122438" stroke-width="4" stroke="#000000" fill="#FFFFFF" transform="matrix(1, 0, 0, 1, 2571.84, 112.018)" ></ellipse><line x1="0.000976562" y1="-48.2458" x2="0.000976562" y2="48.2479" stroke-width="4" stroke="#000000" transform="matrix(1, 0, 0, 1, 2571.84, 178.763)" ></line><line x1="22.1193" y1="-22.3172" x2="-22.1095" y2="22.3159" stroke-width="4" stroke="#000000" transform="matrix(1, 0, 0, 1, 2549.72, 176.19)" ></line><line x1="-21.8812" y1="-21.8151" x2="21.8911" y2="21.8292" stroke-width="4" stroke="#000000" transform="matrix(1, 0, 0, 1, 2593.72, 175.688)" ></line><line x1="23.1235" y1="-23.0067" x2="-23.1259" y2="22.9871" stroke-width="4" stroke="#000000" transform="matrix(1, 0, 0, 1, 2548.72, 250.018)" ></line><line x1="-23.8708" y1="-23.4966" x2="23.8699" y2="23.4917" stroke-width="4" stroke="#000000" transform="matrix(1, 0, 0, 1, 2595.71, 250.508)" ></line></g>
            </g>
        </g>
    </svg>